<?xml version="1.0" encoding="UTF-8"?>
<svg id="_2" data-name="2" xmlns="http://www.w3.org/2000/svg" viewBox="0 0 546.35 122.35">
  <defs>
    <style>
      .cls-1 {
        fill: hsl(45 59% 60.1%);
      }
    </style>
  </defs>
  <path class="cls-1" d="M39.95,76.97c-.91.78-2.32,1.46-4.23,2.04-1.91.58-4,.87-6.27.87-2.72,0-5.05-.41-7-1.21s-3.27-1.93-3.99-3.35c-.71-1.49-1.59-3.42-2.62-5.78-1.04-2.37-2.12-5.01-3.26-7.92-1.13-2.92-2.3-6.01-3.5-9.28-1.2-3.27-2.35-6.59-3.45-9.96-1.1-3.37-2.14-6.67-3.11-9.92-.97-3.24-1.81-6.28-2.53-9.14.91-.91,2.22-1.73,3.94-2.48,1.72-.74,3.55-1.12,5.49-1.12,2.4,0,4.36.5,5.88,1.51,1.52,1.01,2.64,2.87,3.35,5.59,1.75,6.35,3.51,12.43,5.3,18.23,1.78,5.8,3.64,11.84,5.59,18.13h.58c1.75-6.09,3.55-12.73,5.39-19.93,1.85-7.19,3.61-14.35,5.3-21.48,1.17-.58,2.41-1.07,3.74-1.46,1.33-.39,2.83-.58,4.52-.58,2.4,0,4.44.54,6.12,1.6,1.68,1.07,2.53,2.84,2.53,5.3,0,1.43-.34,3.5-1.02,6.22s-1.56,5.78-2.62,9.19c-1.07,3.4-2.27,6.95-3.6,10.64-1.33,3.69-2.66,7.18-3.99,10.45-1.33,3.27-2.58,6.16-3.74,8.65-1.17,2.5-2.11,4.23-2.82,5.2Z"/>
  <path class="cls-1" d="M124.23,49.36c0,5.05-.78,9.54-2.33,13.46-1.56,3.92-3.71,7.19-6.46,9.82-2.76,2.62-6.01,4.62-9.77,5.98-3.76,1.36-7.84,2.04-12.25,2.04s-8.49-.68-12.25-2.04c-3.76-1.36-7-3.37-9.72-6.03-2.72-2.66-4.86-5.93-6.42-9.82s-2.33-8.36-2.33-13.41.79-9.53,2.38-13.41c1.59-3.89,3.76-7.15,6.51-9.77,2.75-2.62,5.99-4.62,9.72-5.98,3.73-1.36,7.76-2.04,12.1-2.04s8.37.68,12.1,2.04c3.73,1.36,6.98,3.36,9.77,5.98,2.79,2.62,4.97,5.88,6.56,9.77,1.59,3.89,2.38,8.36,2.38,13.41ZM106.73,49.36c0-5.83-1.2-10.21-3.6-13.12-2.4-2.92-5.64-4.38-9.72-4.38s-7.14,1.44-9.57,4.33c-2.43,2.89-3.64,7.28-3.64,13.17s1.2,10.3,3.6,13.22c2.4,2.92,5.64,4.38,9.72,4.38s7.23-1.46,9.62-4.38c2.4-2.92,3.6-7.32,3.6-13.22Z"/>
  <path class="cls-1" d="M143.08,79.69c-3.44,0-5.82-.58-7.14-1.75-1.33-1.17-1.99-3.27-1.99-6.32V19.81c.78-.13,1.91-.31,3.4-.54,1.49-.23,2.98-.34,4.47-.34,3.24,0,5.57.55,7,1.65,1.42,1.1,2.14,3.24,2.14,6.42v51.81c-.71.19-1.82.39-3.31.58-1.49.19-3.01.29-4.57.29Z"/>
  <path class="cls-1" d="M209.86,28.56c0,1.69-.42,3.15-1.26,4.38-.84,1.23-1.82,2.2-2.92,2.92-1.69-1.1-3.48-2.04-5.39-2.82-1.91-.78-4.13-1.17-6.66-1.17-4.99,0-8.81,1.54-11.47,4.62-2.66,3.08-3.99,7.41-3.99,12.98s1.44,10.13,4.33,13.07c2.88,2.95,6.88,4.42,12,4.42,2.66,0,4.91-.36,6.76-1.07,1.85-.71,3.61-1.52,5.3-2.43,1.1.91,1.96,1.99,2.58,3.25.62,1.26.92,2.74.92,4.42,0,1.49-.39,2.85-1.17,4.08-.78,1.23-2.11,2.27-3.99,3.11-1.17.52-2.82,1.04-4.96,1.55-2.14.52-4.73.78-7.78.78-4.41,0-8.52-.62-12.34-1.85-3.82-1.23-7.16-3.11-10.01-5.64-2.85-2.53-5.09-5.75-6.71-9.67-1.62-3.92-2.43-8.6-2.43-14.05,0-5.05.79-9.53,2.38-13.41,1.59-3.89,3.76-7.16,6.51-9.82,2.75-2.66,5.98-4.66,9.67-6.03,3.69-1.36,7.65-2.04,11.86-2.04,5.96,0,10.58.97,13.85,2.92,3.27,1.95,4.91,4.44,4.91,7.48Z"/>
  <path d="M355.93,35.46c0,2.92-.81,5.4-2.43,7.44-1.62,2.04-3.89,3.64-6.8,4.81,7.52,2.46,11.28,7.1,11.28,13.9,0,6.41-2.38,11.16-7.14,14.24-4.76,3.07-11.62,4.62-20.56,4.62-1.1,0-2.4-.03-3.89-.1-1.49-.07-3.03-.19-4.62-.39-1.59-.19-3.16-.44-4.71-.73-1.56-.29-2.98-.69-4.28-1.21-3.56-1.36-5.35-3.73-5.35-7.1V25.55c0-1.36.37-2.41,1.12-3.16.74-.74,1.77-1.35,3.06-1.8,2.2-.78,4.96-1.34,8.26-1.7,3.3-.36,6.71-.53,10.21-.53,8.29,0,14.68,1.39,19.15,4.18,4.47,2.79,6.71,7.1,6.71,12.93ZM323.95,43.05h7.1c2.79,0,4.81-.52,6.08-1.56s1.9-2.56,1.9-4.57c0-1.75-.73-3.14-2.19-4.18-1.46-1.03-3.65-1.55-6.56-1.55-.97,0-2.09.03-3.35.1-1.26.07-2.25.16-2.96.29v11.47ZM340.57,60.83c0-3.95-2.66-5.93-7.97-5.93h-8.65v11.86c.91.26,2.07.44,3.5.54,1.42.1,2.79.15,4.08.15,2.59,0,4.75-.54,6.46-1.6,1.72-1.07,2.58-2.74,2.58-5.01Z"/>
  <path d="M400.45,66.67h-17.59c-.65,2.33-1.22,4.5-1.7,6.51-.49,2.01-.96,3.89-1.41,5.64-.91.32-1.86.6-2.87.83-1,.23-2.22.34-3.64.34-3.31,0-5.75-.57-7.34-1.7-1.59-1.13-2.38-2.7-2.38-4.71,0-.91.13-1.82.39-2.72.26-.91.55-1.98.87-3.21.45-1.75,1.09-3.94,1.9-6.56.81-2.62,1.7-5.44,2.67-8.46.97-3.01,2.01-6.09,3.11-9.23,1.1-3.14,2.14-6.12,3.11-8.94.97-2.82,1.86-5.35,2.67-7.58.81-2.24,1.44-3.94,1.9-5.1,1.1-.65,2.77-1.26,5.01-1.85s4.49-.87,6.76-.87c3.24,0,6.11.47,8.6,1.41,2.49.94,4.1,2.45,4.81,4.52,1.17,3.31,2.43,7.19,3.79,11.66s2.72,9.09,4.08,13.85c1.36,4.77,2.69,9.46,3.99,14.09,1.29,4.64,2.43,8.73,3.4,12.3-.78.91-1.94,1.64-3.5,2.19-1.55.55-3.4.82-5.54.82-3.18,0-5.38-.52-6.61-1.55s-2.14-2.69-2.72-4.96l-1.75-6.71ZM391.8,34.3c-.91,2.66-1.91,5.61-3.01,8.85-1.1,3.24-2.17,6.71-3.21,10.4h12.05c-.91-3.69-1.83-7.18-2.77-10.45-.94-3.27-1.77-6.2-2.48-8.8h-.58Z"/>
  <path d="M477.97,78.96c-1.72.49-3.78.73-6.17.73s-4.67-.36-6.8-1.07c-2.14-.71-3.89-2.43-5.25-5.15l-9.62-19.63c-.97-2.01-1.85-3.9-2.62-5.69-.78-1.78-1.62-3.84-2.53-6.17l-.68.2c.32,4.08.5,7.86.54,11.32.03,3.47.05,6.79.05,9.97v15.45c-.71.13-1.78.29-3.21.49-1.43.19-2.88.29-4.37.29-3.31,0-5.59-.57-6.85-1.7-1.26-1.13-1.9-3.16-1.9-6.07V23.02c.91-1.3,2.3-2.27,4.18-2.92,1.88-.65,3.89-.97,6.03-.97,2.4,0,4.68.37,6.85,1.12s3.9,2.45,5.2,5.1l9.72,19.63c.97,2.01,1.85,3.91,2.62,5.69.78,1.78,1.62,3.84,2.53,6.17l.39-.1c-.26-3.11-.41-6.04-.44-8.8-.03-2.75-.05-5.4-.05-7.92v-20.32c.71-.13,1.78-.29,3.21-.49,1.42-.2,2.88-.29,4.37-.29,3.31,0,5.59.57,6.85,1.7,1.26,1.13,1.9,3.16,1.9,6.08v50.16c-.91.91-2.22,1.6-3.94,2.09Z"/>
  <path d="M511.55,56.85v21.97c-.71.19-1.82.39-3.31.58-1.49.19-3.01.29-4.57.29-3.43,0-5.82-.58-7.14-1.75s-1.99-3.27-1.99-6.32V19.81c.78-.13,1.91-.31,3.4-.54,1.49-.23,2.98-.34,4.47-.34,3.24,0,5.57.55,7,1.65,1.42,1.1,2.14,3.24,2.14,6.42v15.75l20.22-23.33c4.41,0,7.57.83,9.48,2.48,1.91,1.65,2.87,3.61,2.87,5.88,0,1.69-.42,3.27-1.26,4.76-.84,1.49-2.2,3.18-4.08,5.05l-12.15,12.15c4.21,4.67,8.03,8.82,11.47,12.44,3.43,3.63,6.19,6.58,8.26,8.84,0,1.43-.26,2.69-.78,3.79-.52,1.1-1.22,2.04-2.09,2.82s-1.86,1.36-2.96,1.75c-1.1.39-2.27.58-3.5.58-2.66,0-4.83-.67-6.51-1.99-1.69-1.33-3.31-2.9-4.86-4.71l-14.09-16.43Z"/>
  <path class="cls-1" d="M295.89,38.03l-6.15,36.53c-2.63,15.63-16.56,26.57-32.03,25.81v8.3h17.87c.16.57.33,1.45.47,2.66.15,1.19.23,2.42.23,3.66,0,2.77-.46,4.68-1.4,5.75-.94,1.06-2.63,1.6-5.09,1.6h-41.66c-.1-.62-.24-1.53-.42-2.74-.19-1.19-.27-2.39-.27-3.6,0-2.61.43-4.48,1.32-5.62.9-1.15,2.61-1.72,5.17-1.72h10.1v-10.38l-1.29-.22c-12.47-2.1-21.93-11.37-24.87-22.87l29.99,5.05c1.79.3,3.28-.01,4.51-.92,1.19-.91,1.99-2.55,2.39-4.93.23-1.33.26-2.58.1-3.72-.18-1.15-.42-2.12-.76-2.9l-36.64-6.16,1.74-10.34c.52.23,1.09.39,1.71.5l30.87,5.2c1.79.3,3.3-.01,4.51-.92,1.19-.91,1.99-2.55,2.4-4.93.22-1.33.26-2.58.08-3.72-.18-1.15-.41-2.12-.75-2.89l-36.64-6.17,1.52-9.02c.5.23,1.07.39,1.7.5l30.87,5.18c1.8.31,3.3,0,4.51-.91,1.21-.92,2.01-2.56,2.4-4.93.23-1.34.26-2.59.1-3.73-.19-1.14-.42-2.1-.76-2.89l-35.15-5.92c6.04-11.58,19.04-18.5,32.61-16.2l11.3,1.9c16.88,2.84,28.25,18.82,25.42,35.69Z"/>
</svg>
