<?xml version="1.0" encoding="UTF-8"?>
<svg id="Layer_1" data-name="Layer 1" xmlns="http://www.w3.org/2000/svg" viewBox="0 0 465.59 376.76">
  <defs>
    <style>
      .cls-1 {
        fill: #fff;
      }
    </style>
  </defs>
  <g>
    <path class="cls-1" d="M169.72,311.56l1.64-6.24c.12-.43.2-.91.32-1.62l.08-.46c.44-2.75.92-5.76,2.79-8.12l1.25-1.56,38.81-5.37.12-4.23c.19-6.52.44-13.07.69-19.41l.04-.99c.23-5.82.46-11.71.65-17.62l.14-4.22-4.14-.84c-15.86-3.21-30.38-11.19-42-23.06-11.97-12.25-20.66-28.54-24.46-45.87-7.64-34.8,4.6-68,31.94-86.65l2.18-1.49v-2.64c.01-4.82.18-11.19,1.42-17.63,1.29-6.76,3.69-13.05,7.14-18.7,8.64-14.18,24.95-22.2,45.92-22.59h.97c14.29,0,24.31,4.99,29.77,7.49h0c6.53,3.29,12.67,10.38,18.45,17.51l.63.77c6.4,7.5,9.26,17.32,8.11,27.7l-.19,1.69.88,1.45c.12.19.23.43.36.73.69,1.58.87,3.27.56,5.03l-.52,2.98,2.4,1.84c24.38,18.77,34.67,47.71,28.23,79.39-3.42,16.87-11.72,33.13-23.38,45.77-11.2,12.16-25.24,20.83-40.6,25.09l-3.81,1.05.14,3.95c.31,8.39.67,16.71,1.05,25.2l.15,3.36c.16,3.72.33,7.49.48,11.26l.17,4.2,38.3,5.11,1.12.95c2.73,2.32,3.66,6.2,4.34,9.04l.06.24c.11.44.22.86.33,1.24l1.76,6.28h-134.31Z"/>
    <g>
      <g>
        <path d="M288.24,85.51c-2.18,1.62-.84,3.12-1.39,5.5l1.92.81.55-.82c58.08,40.12,29.36,131.6-35.78,145.08l-.84-16.31c0-.38.19-.48.47-.65,24.43-6.68,40.64-27.8,41.78-53.11-.07-1.18.64-7.51-1.83-4.99.63,25.26-16.79,51.29-42.58,56.43.32,25.17,1.78,50.41,2.74,75.67l41.01,5.47c1.82,1.55,2.46,5.6,3.13,7.98h-121.22c.64-2.44.71-6.38,2.25-8.32,0,0,41.06-5.68,41.06-5.68.44-24.48,2.22-48.99,1.93-73.49-27.93-3.39-44.81-30.58-43.9-57.16-2.25-4.53,1.74-15.44-4.85-17.11-9.03-.36-5.28,22.44,3.77,12.84-3.63,28.72,13.43,57.83,42.67,63.89l-.43,15.38c-70.64-8.9-97.69-110.51-35.65-149.2v14.54c.7.05,1.79-.56,1.92-1.23.56-2.89-.02-6.44-.07-9.38-.06-3.12-.13-6.24-.14-9.36-.01-5.94.2-11.92,1.33-17.77s3.3-11.8,6.5-17.04c8.85-14.52,25.56-19.89,41.75-20.19,8.05-.15,17.28,1.69,21.16,9.62.51,1.05,1.32,2.6,1.33,3.79.23,39.26.06,79.19.02,118.49-.64,15.69-9.08,32.45-23.77,39.31-11.46,5.34-29.69,2.7-32.43-11.65-.69-14.3-.12-28.69-.31-43.03,2.99-2.67,8.66-3.13,12.62-3.7v14.12c.91,12.54,12.14,21.34,24.63,18.45,5.65-8.95,6.05-18.54,5.83-28.86-.53-34.09.42-68.35,0-102.32-1.2-24.09-53.36-2.7-53.63,28.67,0-.77,4.03-2.58,4.74-2.98,2.45-1.4,5.03-2.57,7.69-3.51,10.14-3.57,20.65-2.62,31.19-2.57,5.31.02,10.45.33,6.86,6.89-19.53-1.32-35.12.43-51.72,11.22v5.76c17.91-11.89,29.87-12.79,51.13-11.23,2.66.4,2.03,6.3.56,6.57-1.91.35-4.14-.25-6.02-.29-17.72-1.61-31.38,3.18-45.76,13.16-.89.31-.3,4.6-.47,5.23,7.22-3.81,13.39-8.81,21.61-10.61,7.18-1.58,22.07-1.36,29.47-.28,3.12.45,2.93,5.22,1.12,7-13.63.03-28.15-1.98-40.58,4.94-1.67.88-12.46,7.35-12.64,8.44.51,1.64-.69,3.46.34,5.04,5.62-3.4,11.02-6.84,17.42-8.64,10.88-2.51,25.05-2.79,35.94-.28.93,1.15.98,5.77-.82,6.33-19.43-.01-37.17-1.97-52.89,11.83-1.37,12.11,9.4-9.72,47.25-5.12,5.43.16,8.57.12,6.58,6.57-.81.84-5.73.59-7.14.57-15.37-1.28-31.63.39-44.74,9.26-2.38.79-2.1,3.9-2,5.95.05.38-.15.48.4.4,6.27-3.29,12.94-6.53,19.89-8.09,10.41-2.34,21.74-.92,32.32-.5,2.46.75,2.56,6.76-.43,7.16-16.4-.6-36.48-1.06-50.11,9.13-1.55,10.75-1.06,27.86,3.01,37.82,12.7,28.61,46.04,22.8,60.14-1.55,8.83-15.25,7.93-23.85,8.27-40.82.65-2.37-.01-3.86-.82-6.29-.62-6.44,3.4-4.38,7.74-3.63,5.56.97,11.04,2.3,16.4,4.03l-.13-3.84c-6.85-4.5-15.61-5.27-23.33-7.66-1.12-1.76-.95-6.25,1.86-6,7.21,1.51,14.31,3.27,21.33,5.43v-4.53c-6.2-4.8-16.39-5.1-23.16-7.83-1.42-4.83-1.17-7.13,4.57-5.67,5.93.39,13.22,3.47,18.59,4.71,0,0-.27-4.87-.27-4.87-6.85-4.05-15.16-4.89-22.76-6.92-5.92-12.4,17.97-1.25,23.01-1.25,2.89-4.76-19.24-7.24-22.73-9.18-7.13-13.88,18.22.08,23.3-.54.74-6.98-19.39-7.79-23.32-11.24-5.73-11.58,18.03-.71,22.22.41l-.32-3.79c-6.45-2.7-13.25-4.47-19.97-6.36,3.57-.55,8.94,2.04,12.76,3.01,4.21,1.76,12.07,2.72,10.68,8.51,2.91.85,3.57,3.39,2.21,6.03ZM287.82,106.9c1.46-2.89,2.83-10.92-2.74-8.5.07,1.32,1.87,1.33,2.61,1.91,1.73,1.35-1.39,4.96-2.33,6.15l1.36,1.4.04,5.72c3.3,2.94,1.82-5.25,2.15-6.96l-1.09.27ZM183.06,109.64v4.66h1.37c-.25-1.46.19-2.9-.41-4.39l-.96-.27ZM288.65,127.47v-8.23c-3.33,1.3-1.21,4.64-2.2,7.25l2.2.98ZM183.88,122.81l-1.1-.28.27,5.21.73-.4c-.33-1.49-.3-3.08.09-4.53ZM288.1,139.26c-.25-.77.71-5.97-.82-5.76l-.46,5.09,1.28.67ZM182.78,134.87v4.53c0,.43.57,1.59.28,2.33,1.2-.87.74-2.84.84-4.23.1-1.47,1.23-1.83-1.12-2.63ZM283.07,145.38c-1.42-1.28-9.31-4.26-11.3-3.66,11.35,82.19-82.97,83.72-87.63,28.4-.14-1.83.91-13.07-2.71-7.95-.32,2.1.31,8.49.53,10.95,7.33,58.17,114.65,58.6,101.11-27.75ZM294.09,157.05c1.02-3.3,2.77-12.91-3.09-12.29-7.12.25-2.66,23.29-4.28,29.05,1.1-2.22.98-14.41,1.09-17l6.27.24ZM297.79,158.37c8.62,5.28,10.5-15.25,1.75-13.29-4.33.99-4.42,10.6-1.75,13.29ZM181.35,145.63c-3.74.37-3.93,5.08-3.44,7.97.72,4.32,6.99,5.58,7.59,1.14.41-3.02.11-9.52-4.15-9.1ZM190.73,197.4c.21-.39-6.01-9.36-6.3-9.87,1.3,3.67,3.56,7.09,6.3,9.87ZM238.46,217.97h-6.03l2.88,57.05,3.15-57.05ZM261.49,297.78c-17.02-.94-34.92-1.59-51.84.13,7.5,1.97,16.68.34,24.56.67,8.38-.3,19.47,1.41,27.27-.81Z"/>
        <path d="M231.87,34.77c-9.36.94-17.61,6.92-18.92,17,4.16-.4,27.3-2.5,28.5.98,2.86,10.82-19.22-1.3-40.29,9.72-2.53-17.3,14.61-29.27,30.71-27.7Z"/>
        <path d="M287,76.73c-4.6-7.5-18.16-9.02-25.93-12.05-1.99-.63-1.95-5.71-.4-6.46,1.18-.57,3.67.22,4.94.55,5.99,1.26,11.39,5.32,17.01,6.3-2.76-13.03-11.43-25.09-22.77-31.94,7.4,1.78,15.62,12.25,20.4,18.13,6.12,7.09,8.15,16.33,6.75,25.48Z"/>
      </g>
      <path d="M212.9,97.1c2.99-.15,3.01,1.99,1.22,3.7l-11.77,2.8c-6.96-3.7,8.2-6.16,10.55-6.5Z"/>
      <path d="M218.16,126.65l-1.05,1.84-3.38.86c-3.8-.23-13.39,4.4-15.6.18,5.74-1.45,13.28-4.01,20.02-2.88Z"/>
      <path d="M199.79,115.95c2.42-.81,18.82-7.02,13.24-.07-3.76-.01-11.36,4.93-13.24.07Z"/>
      <path d="M215.41,83.03s-.48-.07-.54.19c.64,3.68-5.45,2.93-7.95,4.08-.93.27-2.74,1.2-3.46,1.23-.97.04-2.37-1.59-1.47-2.33,3.71-1.84,9.12-3.04,13.31-3.7l.12.53Z"/>
      <path d="M214.87,70.42c-.05.75.28,1.72-.43,2.17l-11.43,3.25c-3.97-1.95,1.43-3.21,3.3-3.7,1.07-.3,8.25-2.03,8.56-1.72Z"/>
    </g>
  </g>
  <path class="cls-1" d="M85.03,366.65c-.69.59-1.77,1.11-3.23,1.56-1.46.44-3.05.67-4.78.67-2.08,0-3.86-.31-5.34-.93-1.48-.62-2.5-1.47-3.04-2.56-.54-1.14-1.21-2.61-2-4.41-.79-1.8-1.62-3.82-2.48-6.04-.87-2.22-1.76-4.59-2.67-7.08-.92-2.5-1.79-5.03-2.63-7.6-.84-2.57-1.63-5.09-2.37-7.57-.74-2.47-1.38-4.8-1.93-6.97.69-.69,1.69-1.32,3-1.89,1.31-.57,2.71-.85,4.19-.85,1.83,0,3.32.38,4.49,1.15,1.16.77,2.01,2.19,2.56,4.27,1.34,4.85,2.68,9.48,4.04,13.91,1.36,4.43,2.78,9.04,4.26,13.83h.45c1.34-4.65,2.71-9.72,4.12-15.2s2.76-10.95,4.04-16.39c.89-.44,1.84-.82,2.86-1.11,1.01-.3,2.16-.44,3.45-.44,1.83,0,3.39.41,4.67,1.22,1.29.82,1.93,2.16,1.93,4.04,0,1.09-.26,2.67-.78,4.75-.52,2.08-1.19,4.41-2,7.01-.82,2.6-1.73,5.3-2.74,8.12-1.01,2.82-2.03,5.48-3.04,7.97-1.01,2.5-1.97,4.7-2.86,6.6-.89,1.9-1.61,3.23-2.15,3.97Z"/>
  <path class="cls-1" d="M143.26,345.59c0,3.86-.59,7.28-1.78,10.27-1.19,2.99-2.83,5.49-4.93,7.49-2.1,2-4.59,3.52-7.45,4.56-2.87,1.04-5.98,1.56-9.35,1.56s-6.48-.52-9.35-1.56c-2.87-1.04-5.34-2.57-7.42-4.6-2.08-2.03-3.71-4.52-4.9-7.49-1.19-2.97-1.78-6.38-1.78-10.24s.6-7.27,1.82-10.24c1.21-2.97,2.87-5.45,4.97-7.45,2.1-2,4.57-3.52,7.42-4.56,2.84-1.04,5.92-1.56,9.23-1.56s6.39.52,9.23,1.56c2.84,1.04,5.33,2.56,7.45,4.56,2.13,2,3.79,4.49,5.01,7.45,1.21,2.97,1.82,6.38,1.82,10.24ZM129.91,345.59c0-4.45-.92-7.79-2.74-10.01-1.83-2.23-4.3-3.34-7.42-3.34s-5.45,1.1-7.31,3.3c-1.85,2.2-2.78,5.55-2.78,10.05s.91,7.86,2.74,10.09c1.83,2.23,4.3,3.34,7.42,3.34s5.51-1.11,7.34-3.34c1.83-2.22,2.74-5.59,2.74-10.09Z"/>
  <path class="cls-1" d="M152.24,368.73c-2.62,0-4.44-.45-5.45-1.34-1.01-.89-1.52-2.5-1.52-4.82v-39.53c.59-.1,1.46-.23,2.6-.41,1.14-.17,2.27-.26,3.41-.26,2.47,0,4.25.42,5.34,1.26,1.09.84,1.63,2.47,1.63,4.89v39.53c-.54.15-1.38.3-2.52.44-1.14.15-2.3.22-3.49.22Z"/>
  <path class="cls-1" d="M197.8,329.71c0,1.29-.32,2.4-.96,3.34-.64.94-1.38,1.68-2.23,2.22-1.29-.84-2.66-1.56-4.12-2.15-1.46-.59-3.15-.89-5.08-.89-3.81,0-6.72,1.18-8.75,3.52-2.03,2.35-3.04,5.65-3.04,9.9s1.1,7.73,3.3,9.98c2.2,2.25,5.25,3.37,9.16,3.37,2.03,0,3.75-.27,5.15-.82,1.41-.54,2.76-1.16,4.04-1.85.84.69,1.49,1.52,1.97,2.48.47.96.7,2.09.7,3.37,0,1.14-.3,2.18-.89,3.12-.59.94-1.61,1.73-3.04,2.37-.89.4-2.15.79-3.78,1.19-1.63.39-3.61.59-5.93.59-3.36,0-6.5-.47-9.42-1.41-2.92-.94-5.46-2.37-7.64-4.3-2.18-1.93-3.88-4.39-5.12-7.38-1.24-2.99-1.85-6.56-1.85-10.72,0-3.86.6-7.27,1.82-10.24,1.21-2.97,2.87-5.46,4.97-7.49,2.1-2.03,4.56-3.56,7.38-4.6,2.82-1.04,5.83-1.56,9.05-1.56,4.55,0,8.07.74,10.57,2.22,2.5,1.48,3.75,3.39,3.75,5.71Z"/>
  <path class="cls-1" d="M201.27,366.5c-1.24-1.24-1.85-2.92-1.85-5.04v-31.37c0-2.13.62-3.81,1.85-5.04,1.24-1.24,2.92-1.85,5.04-1.85h24.48c.35.55.66,1.24.93,2.08.27.84.41,1.78.41,2.82,0,1.83-.4,3.16-1.19,4-.79.84-1.88,1.26-3.26,1.26h-15.65v6.9h16.69c.35.54.66,1.24.93,2.08.27.84.41,1.78.41,2.82,0,1.83-.4,3.15-1.19,3.97s-1.88,1.22-3.26,1.22h-13.57v7.79h19.06c.35.55.66,1.26.93,2.15s.41,1.85.41,2.89c0,1.83-.4,3.15-1.19,3.97s-1.88,1.22-3.26,1.22h-21.66c-2.13,0-3.81-.62-5.04-1.85Z"/>
  <path class="cls-1" d="M283,334.98c0,2.23-.62,4.12-1.85,5.67-1.24,1.56-2.97,2.78-5.19,3.67,5.74,1.88,8.6,5.41,8.6,10.61,0,4.9-1.82,8.52-5.45,10.87-3.63,2.35-8.86,3.52-15.69,3.52-.84,0-1.83-.03-2.97-.07-1.14-.05-2.31-.15-3.52-.3-1.21-.15-2.41-.33-3.6-.56-1.19-.22-2.27-.53-3.26-.93-2.72-1.04-4.08-2.84-4.08-5.41v-34.64c0-1.04.28-1.84.85-2.41.57-.57,1.35-1.03,2.34-1.37,1.68-.59,3.78-1.03,6.31-1.3,2.52-.27,5.12-.41,7.79-.41,6.33,0,11.2,1.06,14.61,3.19,3.41,2.13,5.12,5.41,5.12,9.86ZM258.6,340.76h5.41c2.13,0,3.67-.39,4.64-1.19.96-.79,1.45-1.95,1.45-3.49,0-1.33-.56-2.4-1.67-3.19-1.11-.79-2.78-1.19-5.01-1.19-.74,0-1.59.03-2.56.07-.96.05-1.72.12-2.26.22v8.75ZM271.29,354.34c0-3.02-2.03-4.52-6.08-4.52h-6.6v9.05c.69.2,1.58.33,2.67.41,1.09.07,2.13.11,3.12.11,1.98,0,3.62-.41,4.93-1.22,1.31-.82,1.97-2.09,1.97-3.82Z"/>
  <path class="cls-1" d="M311.23,358.79h-13.42c-.5,1.78-.93,3.44-1.3,4.97-.37,1.53-.73,2.97-1.08,4.3-.69.25-1.42.46-2.19.63-.77.17-1.69.26-2.78.26-2.52,0-4.39-.43-5.6-1.3-1.21-.86-1.82-2.06-1.82-3.6,0-.69.1-1.38.3-2.08.2-.69.42-1.51.67-2.45.35-1.33.83-3,1.45-5.01.62-2,1.3-4.15,2.04-6.45s1.53-4.65,2.37-7.05c.84-2.4,1.63-4.67,2.37-6.82.74-2.15,1.42-4.08,2.04-5.79.62-1.71,1.1-3,1.45-3.89.84-.49,2.11-.96,3.82-1.41s3.42-.67,5.16-.67c2.47,0,4.66.36,6.56,1.08,1.9.72,3.13,1.87,3.67,3.45.89,2.52,1.85,5.49,2.89,8.9,1.04,3.41,2.08,6.93,3.12,10.57s2.05,7.22,3.04,10.75c.99,3.54,1.85,6.66,2.6,9.38-.59.69-1.48,1.25-2.67,1.67s-2.6.63-4.23.63c-2.42,0-4.11-.4-5.04-1.19-.94-.79-1.63-2.05-2.08-3.78l-1.34-5.12ZM304.63,334.09c-.69,2.03-1.46,4.28-2.3,6.75-.84,2.47-1.66,5.12-2.45,7.94h9.2c-.69-2.82-1.4-5.48-2.11-7.97-.72-2.5-1.35-4.73-1.89-6.71h-.45Z"/>
  <path class="cls-1" d="M364.23,368.17c-1.31.37-2.88.56-4.71.56s-3.56-.27-5.19-.82c-1.63-.54-2.97-1.85-4-3.93l-7.34-14.98c-.74-1.53-1.41-2.98-2-4.34-.59-1.36-1.24-2.93-1.93-4.71l-.52.15c.25,3.12.38,6,.41,8.64.02,2.65.04,5.18.04,7.6v11.79c-.54.1-1.36.22-2.45.37-1.09.15-2.2.22-3.34.22-2.52,0-4.26-.43-5.23-1.3-.96-.86-1.45-2.41-1.45-4.64v-37.31c.69-.99,1.75-1.73,3.19-2.22s2.97-.74,4.6-.74c1.83,0,3.57.28,5.23.85,1.66.57,2.98,1.87,3.97,3.89l7.42,14.98c.74,1.53,1.41,2.98,2,4.34.59,1.36,1.24,2.93,1.93,4.71l.3-.07c-.2-2.37-.31-4.61-.33-6.71-.03-2.1-.04-4.12-.04-6.04v-15.5c.54-.1,1.36-.22,2.45-.37,1.09-.15,2.2-.22,3.34-.22,2.52,0,4.26.43,5.23,1.3.96.87,1.45,2.41,1.45,4.64v38.27c-.69.69-1.69,1.22-3,1.59Z"/>
  <path class="cls-1" d="M384.49,351.3v16.76c-.54.15-1.38.3-2.52.44-1.14.15-2.3.22-3.49.22-2.62,0-4.44-.45-5.45-1.34-1.01-.89-1.52-2.5-1.52-4.82v-39.53c.59-.1,1.46-.23,2.6-.41,1.14-.17,2.27-.26,3.41-.26,2.47,0,4.25.42,5.34,1.26,1.09.84,1.63,2.47,1.63,4.89v12.02l15.43-17.8c3.36,0,5.77.63,7.23,1.89,1.46,1.26,2.19,2.76,2.19,4.49,0,1.29-.32,2.5-.96,3.63-.64,1.14-1.68,2.42-3.12,3.86l-9.27,9.27c3.21,3.56,6.13,6.73,8.75,9.49,2.62,2.77,4.72,5.02,6.3,6.75,0,1.09-.2,2.05-.59,2.89-.4.84-.93,1.56-1.59,2.15-.67.59-1.42,1.04-2.26,1.33-.84.3-1.73.44-2.67.44-2.03,0-3.68-.51-4.97-1.52-1.29-1.01-2.52-2.21-3.71-3.6l-10.75-12.53Z"/>
</svg>